<svg width="30" height="31" viewBox="0 0 30 31" fill="none" xmlns="http://www.w3.org/2000/svg">
<path d="M7.41849 0.637711C7.41381 0.642399 7.2403 0.665838 7.03397 0.686934C5.48182 0.851015 4.13366 1.39717 2.93086 2.34884C2.63543 2.58324 2.05865 3.14814 1.81012 3.44818C1.18645 4.19826 0.698764 5.07961 0.403339 5.98439C0.213424 6.56805 0.121983 6.99232 0.0422653 7.67208C0.00240646 8.00258 6.18215e-05 8.48545 6.18215e-05 15.6183C6.18215e-05 23.9231 -0.00697209 23.4051 0.129017 24.1973C0.710487 27.5422 3.50998 30.1792 6.8675 30.5496C7.04804 30.5684 7.28251 30.5965 7.38567 30.6082C7.64124 30.641 22.3468 30.641 22.6024 30.6082C22.7055 30.5965 22.94 30.5684 23.1205 30.5496C26.2483 30.205 28.9235 27.8798 29.7183 24.8115C29.8262 24.3895 29.8918 24.0403 29.927 23.6699C29.9434 23.5223 29.9645 23.323 29.9763 23.2293C30.0091 22.9949 30.0067 8.27683 29.9763 8.02368C29.9645 7.92054 29.9364 7.68614 29.9176 7.50566C29.7676 6.13441 29.2096 4.77957 28.335 3.64742C28.0888 3.32863 27.5636 2.77779 27.2705 2.52933C26.1732 1.59875 24.8649 0.982279 23.5051 0.759598C22.7595 0.635366 23.2636 0.642399 15.0386 0.635366C10.8534 0.630678 7.42553 0.633022 7.41849 0.637711ZM22.8884 3.21846C24.1733 3.38723 25.362 4.0248 26.1967 4.99991C26.8368 5.74765 27.2354 6.60087 27.4136 7.61348C27.4534 7.85022 27.4558 8.18542 27.4558 15.6417V23.4238L27.4018 23.7238C27.2002 24.8373 26.7078 25.7913 25.9318 26.5648C25.1651 27.3336 24.2342 27.8165 23.1065 28.0345L22.8368 28.086L15.1699 28.0954C9.5357 28.1001 7.43491 28.0954 7.24499 28.0767C5.02931 27.847 3.18877 26.2272 2.67764 24.0567C2.53696 23.4613 2.54399 23.9465 2.54399 15.6417C2.54399 8.94722 2.54868 8.00493 2.57916 7.76115C2.86286 5.58825 4.45487 3.82322 6.58849 3.31691C7.1559 3.18096 6.68931 3.18799 14.9753 3.18565C21.7091 3.1833 22.6446 3.18799 22.8884 3.21846Z" fill="white"/>
<path d="M22.8705 5.6912C22.2609 5.84825 21.7779 6.34049 21.6373 6.94524C21.5857 7.17027 21.5904 7.53124 21.649 7.75861C21.785 8.28601 22.1953 8.73841 22.7041 8.92358C23.3418 9.15564 24.0053 9.00797 24.4883 8.5251C24.8283 8.18757 24.9807 7.81721 24.9807 7.33435C24.9807 6.93587 24.8729 6.6077 24.6407 6.30064C24.2398 5.77324 23.5153 5.52243 22.8705 5.6912Z" fill="white"/>
<path d="M14.5014 8.21431C12.4968 8.36432 10.6679 9.28083 9.36901 10.788C7.7981 12.6117 7.20491 15.0752 7.77465 17.4099C8.02553 18.4389 8.51087 19.428 9.17909 20.2695C9.42997 20.586 10.0583 21.2165 10.3749 21.465C11.4417 22.3112 12.6796 22.8362 14.0348 23.0238C14.4194 23.0777 15.1978 23.0941 15.6057 23.0613C17.7112 22.8831 19.5705 21.8775 20.8929 20.1992C21.7628 19.0952 22.3044 17.7005 22.4286 16.2402C22.4615 15.8323 22.445 15.0541 22.3911 14.6697C22.2036 13.3149 21.6784 12.0772 20.8319 11.0107C20.5834 10.6943 19.9527 10.0637 19.6385 9.81761C18.288 8.75109 16.6397 8.18149 14.9492 8.20259C14.7617 8.20493 14.56 8.20962 14.5014 8.21431ZM15.7394 10.4833C17.2915 10.7083 18.6796 11.6295 19.4744 12.968C19.9738 13.8048 20.2083 14.651 20.2083 15.6284C20.2106 16.2238 20.159 16.5824 19.9972 17.1333C19.4674 18.9452 17.9035 20.375 16.0489 20.7477C15.5073 20.8555 14.7664 20.8766 14.267 20.7993C12.5108 20.5274 11.0689 19.4632 10.3069 17.8787C9.95751 17.1497 9.80276 16.4629 9.80276 15.6401C9.80276 14.801 9.95985 14.1165 10.328 13.3664C10.8438 12.3069 11.6714 11.4795 12.7312 10.9638C13.3408 10.6661 13.9692 10.495 14.6538 10.4388C14.8695 10.4224 15.4838 10.4458 15.7394 10.4833Z" fill="white"/>
</svg>
